<svg width="832.6000244140624px" height="183.2px" xmlns="http://www.w3.org/2000/svg" viewBox="-166.30001220703122 -16.599999999999994 832.6000244140624 183.2" style="background: rgb(165, 3, 3);" preserveAspectRatio="xMidYMid"><defs><linearGradient id="editing-gradient-gradient" x1="0.014852136862001764" x2="0.9851478631379982" y1="0.6209609477998339" y2="0.3790390522001661" gradientUnits="objectBoundingBox"><stop offset="0" stop-color="#ffffff"></stop><stop offset="1" stop-color="#ffffff"></stop></linearGradient></defs><g><g transform="translate(-44.95000123977661, 111.64500045776367)"><path d="M22.02-63.38L0.98-63.38L0.98-70.02L52.00-70.02L52.00-63.38L31.01-63.38L31.01 0L22.02 0L22.02-63.38ZM63.28 0L54.30 0L83.20-70.02L92.19-70.02L121.39 0L112.40 0L102.59-23.39L72.90-23.39L63.28 0ZM87.70-60.79L75.68-29.98L99.90-29.98L87.70-60.79ZM176.90 0L133.98 0L133.98-70.02L142.97-70.02L142.97-6.59L176.90-6.59L176.90 0ZM198.44 0L189.45 0L189.45-70.02L198.44-70.02L198.44-38.28L233.45-38.28L233.45-70.02L242.48-70.02L242.48 0L233.45 0L233.45-31.69L198.44-31.69L198.44 0ZM264.01 0L255.03 0L283.94-70.02L292.92-70.02L322.12 0L313.13 0L303.32-23.39L273.63-23.39L264.01 0ZM288.43-60.79L276.42-29.98L300.63-29.98L288.43-60.79ZM354.54-54.00L354.54-54.00L354.54-54.00Q354.54-61.72 361.18-66.60L361.18-66.60L361.18-66.60Q367.82-71.48 376.51-71.48L376.51-71.48L376.51-71.48Q383.20-71.48 389.84-68.41L389.84-68.41L389.84-68.41Q392.04-67.43 394.82-65.28L394.82-65.28L391.41-57.91L391.41-57.91Q389.21-59.62 386.82-60.89L386.82-60.89L386.82-60.89Q381.20-63.87 376.51-63.92L376.51-63.92L376.51-63.92Q371.44-63.92 367.48-61.30L367.48-61.30L367.48-61.30Q363.53-58.69 363.53-54.00L363.53-54.00L363.53-54.00Q363.53-52.10 364.28-50.49L364.28-50.49L364.28-50.49Q365.04-48.88 366.89-47.46L366.89-47.46L369.73-45.26L369.73-45.26Q370.70-44.53 373.46-43.12L373.46-43.12L373.46-43.12Q376.22-41.70 376.51-41.50L376.51-41.50L381.15-38.96L381.15-38.96Q384.52-37.11 385.74-36.28L385.74-36.28L389.40-33.84L389.40-33.84Q391.89-32.18 392.92-30.83L392.92-30.83L392.92-30.83Q393.95-29.49 395.24-27.54L395.24-27.54L395.24-27.54Q396.53-25.59 397.02-23.29L397.02-23.29L397.02-23.29Q397.51-21.00 397.51-18.21L397.51-18.21L397.51-18.21Q397.51-9.81 390.53-4.15L390.53-4.15L390.53-4.15Q383.54 1.51 374.51 1.51L374.51 1.51L374.51 1.51Q366.99 1.51 360.01-2.69L360.01-2.69L360.01-2.69Q356.93-4.49 354.54-6.98L354.54-6.98L358.01-14.50L358.01-14.50Q360.79-12.01 363.53-10.30L363.53-10.30L363.53-10.30Q369.92-6.10 374.51-6.10L374.51-6.10L374.51-6.10Q380.32-6.10 384.42-9.50L384.42-9.50L384.42-9.50Q388.53-12.89 388.53-18.21L388.53-18.21L388.53-18.21Q388.53-22.90 385.03-26.61L385.03-26.61L385.03-26.61Q381.54-30.32 376.51-32.86L376.51-32.86L366.50-38.09L366.50-38.09Q361.52-40.77 358.03-44.80L358.03-44.80L358.03-44.80Q354.54-48.83 354.54-54.00ZM419.58 0L410.60 0L410.60-70.02L419.58-70.02L419.58 0ZM445.75 0L436.77 0L436.77-70.02L458.98-70.02L458.98-70.02Q469.09-70.02 476.12-63.67L476.12-63.67L476.12-63.67Q483.15-57.32 483.15-47.71L483.15-47.71L483.15-47.71Q483.15-40.53 479.13-35.01L479.13-35.01L479.13-35.01Q475.10-29.49 468.36-27.10L468.36-27.10L484.18 0L475.20 0L460.35-25.49L445.75-25.49L445.75 0ZM445.75-63.38L445.75-32.08L458.98-32.08L458.98-32.08Q465.38-32.08 469.78-36.50L469.78-36.50L469.78-36.50Q474.17-40.92 474.17-47.71L474.17-47.71L474.17-47.71Q474.17-54.49 469.78-58.94L469.78-58.94L469.78-58.94Q465.38-63.38 458.98-63.38L458.98-63.38L445.75-63.38ZM501.12 0L492.14 0L521.04-70.02L530.03-70.02L559.23 0L550.24 0L540.43-23.39L510.74-23.39L501.12 0ZM525.54-60.79L513.53-29.98L537.74-29.98L525.54-60.79ZM567.24 1.81L567.24 1.81L567.24-5.18L567.24-5.18Q574.85-5.37 577.39-9.23L577.39-9.23L577.39-9.23Q579.93-13.09 579.93-23.39L579.93-23.39L579.93-70.02L588.92-70.02L588.92-32.81L588.92-32.81Q588.92-26.90 588.82-23.05L588.82-23.05L588.82-23.05Q588.72-19.19 588.33-15.41L588.33-15.41L588.33-15.41Q587.94-11.62 587.28-9.30L587.28-9.30L587.28-9.30Q586.62-6.98 585.47-4.88L585.47-4.88L585.47-4.88Q584.33-2.78 582.84-1.68L582.84-1.68L582.84-1.68Q581.35-0.59 578.98 0.27L578.98 0.27L578.98 0.27Q576.61 1.12 573.88 1.42L573.88 1.42L573.88 1.42Q571.14 1.71 567.24 1.81Z" fill="url(#editing-gradient-gradient)"></path></g></g><style>text {
  font-size: 64px;
  font-family: Arial Black;
  dominant-baseline: central;
  text-anchor: middle;
}</style></svg>